<svg width="18" height="18" viewBox="0 0 18 18" fill="none" xmlns="http://www.w3.org/2000/svg">
<path d="M13.8566 6.64271L13.1396 1.9913C13.0876 1.65499 12.8382 1.41089 12.5477 1.41177H5.45149C5.16087 1.41089 4.91146 1.65521 4.85959 1.99165L4.14259 6.64271C4.11293 6.83449 4.22104 7.01824 4.38406 7.05313C4.40168 7.05693 4.41957 7.05883 4.43749 7.05883H13.5617C13.7274 7.05865 13.8616 6.90049 13.8614 6.70558C13.8614 6.68449 13.8598 6.66344 13.8566 6.64271ZM4.79689 6.35294L5.45149 2.11765H12.548L13.2023 6.35294H4.79689Z" fill="white"/>
<path d="M13.4998 9.17648C12.8371 9.17648 12.2998 9.80855 12.2998 10.5882C12.2998 11.3679 12.8371 12 13.4998 12C14.1625 12 14.6998 11.3679 14.6998 10.5882C14.6998 9.80855 14.1625 9.17648 13.4998 9.17648ZM13.4998 11.2941C13.1684 11.2941 12.8998 10.9781 12.8998 10.5882C12.8998 10.1984 13.1684 9.88236 13.4998 9.88236C13.8312 9.88236 14.0998 10.1984 14.0998 10.5882C14.0998 10.9781 13.8312 11.2941 13.4998 11.2941Z" fill="white"/>
<path d="M4.4998 9.17648C3.83707 9.17648 3.2998 9.80855 3.2998 10.5882C3.2998 11.3679 3.83707 12 4.4998 12C5.16254 12 5.6998 11.3679 5.6998 10.5882C5.6998 9.80855 5.16254 9.17648 4.4998 9.17648ZM4.4998 11.2941C4.16842 11.2941 3.8998 10.9781 3.8998 10.5882C3.8998 10.1984 4.16842 9.88236 4.4998 9.88236C4.83119 9.88236 5.0998 10.1984 5.0998 10.5882C5.0998 10.9781 4.83119 11.2941 4.4998 11.2941Z" fill="white"/>
<path d="M15.9 7.05883H17.7C17.8657 7.05883 18 6.9008 18 6.70588V5.29412C18 5.09921 17.8657 4.94118 17.7 4.94118H15.9C15.7343 4.94118 15.6 5.09921 15.6 5.29412V5.64706H14.9232L14.1852 0.869651C14.1081 0.365343 13.7346 -0.00123097 13.299 4.32645e-06H4.701C4.26574 -0.00145156 3.89235 0.364681 3.8151 0.868592L3.0768 5.64706H2.4V5.29412C2.4 5.09921 2.26568 4.94118 2.1 4.94118H0.3C0.134325 4.94118 0 5.09921 0 5.29412V6.70588C0 6.9008 0.134325 7.05883 0.3 7.05883H2.1C2.26568 7.05883 2.4 6.9008 2.4 6.70588V6.35294H2.9676L2.7495 7.76471H2.4C1.90294 7.76471 1.5 8.23875 1.5 8.82353V13.0588H0.3C0.134325 13.0588 0 13.2169 0 13.4118V14.8235C0 15.0184 0.134325 15.1765 0.3 15.1765H1.5V17.6471C1.5 17.842 1.63433 18 1.8 18H4.2C4.36567 18 4.5 17.842 4.5 17.6471V15.1765H13.5V17.6471C13.5 17.842 13.6343 18 13.8 18H16.2C16.3657 18 16.5 17.842 16.5 17.6471V15.1765H17.7C17.8657 15.1765 18 15.0184 18 14.8235V13.4118C18 13.2169 17.8657 13.0588 17.7 13.0588H16.5V8.82353C16.5 8.23875 16.0971 7.76471 15.6 7.76471H15.2505L15.0324 6.35294H15.6V6.70588C15.6 6.9008 15.7343 7.05883 15.9 7.05883ZM16.2 5.64706H17.4V6.35294H16.2V5.64706ZM1.8 6.35294H0.6V5.64706H1.8V6.35294ZM3.9 17.2941H2.1V15.1765H3.9V17.2941ZM15.9 17.2941H14.1V15.1765H15.9V17.2941ZM17.4 13.7647V14.4706H0.6V13.7647H17.4ZM15.6 8.47059C15.7657 8.47059 15.9 8.62862 15.9 8.82353V13.0588H2.1V8.82353C2.1 8.62862 2.23432 8.47059 2.4 8.47059H3C3.14486 8.47046 3.26895 8.34852 3.2949 8.18083L4.4049 0.993533C4.43167 0.826151 4.55625 0.705181 4.701 0.705886H13.299C13.4439 0.705445 13.5684 0.826945 13.5948 0.994592L14.7048 8.18083C14.7308 8.34865 14.855 8.47063 15 8.47059H15.6Z" fill="white"/>
</svg>
