<svg width="18" height="18" viewBox="0 0 18 18" fill="none" xmlns="http://www.w3.org/2000/svg">
<path d="M10.1765 0.813466C10.0193 0.444429 9.70968 0.164127 9.31307 0.0409043C8.73283 -0.110479 8.12143 0.168909 7.85563 0.704024C7.42151 1.57552 7.19472 2.55132 7.20011 3.52353L7.20011 12.9039C7.20011 12.9227 7.2019 12.9416 7.20552 12.9605L8.01314 17.142C8.08125 17.6315 8.50545 18 8.99927 18C8.99959 18 9.00019 18 9.00078 18C9.49521 18 9.91912 17.6312 9.98452 17.1576L10.7945 12.9606C10.7984 12.942 10.8002 12.9228 10.8002 12.9039V3.52293C10.7981 2.58493 10.5803 1.6433 10.1765 0.813466ZM10.2002 12.8748L9.39318 17.0592C9.36619 17.2538 9.19728 17.4004 8.99987 17.4004C8.80278 17.4004 8.63415 17.2538 8.60505 17.0439L7.80043 12.8751L7.80043 3.52206C7.79564 2.6416 8.00054 1.75931 8.39325 0.970861C8.53367 0.68845 8.85766 0.54125 9.14806 0.617118C9.36257 0.683985 9.53658 0.841064 9.63048 1.06139C10.0013 1.82435 10.1981 2.67574 10.2002 3.52353V12.8748Z" fill="white"/>
<path d="M7.65383 6.65004C7.56291 6.5958 7.4498 6.59369 7.35741 6.64403L0.157196 10.5413C0.0603029 10.5937 1.55181e-10 10.6948 1.55181e-10 10.8048L1.55181e-10 12.6035C1.55181e-10 12.7018 0.047989 12.7936 0.129014 12.8499C0.180029 12.885 0.239734 12.9033 0.300037 12.9033C0.335431 12.9033 0.371141 12.8973 0.405338 12.8844L7.60556 10.1863C7.72257 10.1423 7.80026 10.0304 7.80026 9.90542V6.90756C7.80022 6.80206 7.74474 6.70433 7.65383 6.65004ZM7.20022 9.69768L0.600003 12.1709V10.9835L7.20022 7.41125V9.69768Z" fill="white"/>
<path d="M17.8432 10.5415L10.643 6.6443C10.55 6.59424 10.4375 6.59603 10.3466 6.65031C10.256 6.70428 10.2002 6.80201 10.2002 6.90783V9.90569C10.2002 10.0307 10.2776 10.1428 10.3946 10.1866L17.5948 12.8847C17.6293 12.8973 17.665 12.9035 17.7004 12.9035C17.7608 12.9035 17.8205 12.8855 17.8708 12.8502C17.9518 12.7941 18.0001 12.7021 18.0001 12.6038V10.8051C18.0001 10.695 17.9398 10.594 17.8432 10.5415ZM17.4004 12.1712L10.8002 9.69792V7.41113L17.4004 10.9837V12.1712Z" fill="white"/>
<path d="M4.80043 6.90778C4.30422 6.90778 3.90039 7.31131 3.90039 7.80715V8.70653H4.50039V7.80715C4.50039 7.64195 4.63511 7.50738 4.8004 7.50738C4.96568 7.50738 5.1004 7.64199 5.1004 7.80715V8.10693H5.7004V7.80715C5.70047 7.31127 5.29665 6.90778 4.80043 6.90778Z" fill="white"/>
<path d="M2.10024 8.40677C1.60402 8.40677 1.2002 8.81029 1.2002 9.30614V10.2055H1.8002V9.30614C1.8002 9.14097 1.93491 9.00664 2.1002 9.00664C2.26549 9.00664 2.4002 9.14094 2.4002 9.30614H3.00021C3.00028 8.81029 2.59645 8.40677 2.10024 8.40677Z" fill="white"/>
<path d="M13.2008 6.90782C12.7046 6.90782 12.3008 7.31135 12.3008 7.80719V8.10697H12.9008V7.80719C12.9008 7.64199 13.0352 7.50741 13.2008 7.50741C13.3664 7.50741 13.5008 7.64203 13.5008 7.80719V8.70656H14.1008V7.80719C14.1009 7.31131 13.697 6.90782 13.2008 6.90782Z" fill="white"/>
<path d="M15.9 8.40665C15.4038 8.40665 15 8.81017 15 9.30602H15.6C15.6 9.14085 15.7344 9.00652 15.9 9.00652C16.0656 9.00652 16.2 9.14082 16.2 9.30602V10.2054H16.8V9.30602C16.8001 8.81017 16.3963 8.40665 15.9 8.40665Z" fill="white"/>
<path d="M8.35031 16.805L5.09972 17.3464V16.671L7.95433 14.9595L7.6456 14.4454L4.64551 16.2441C4.5552 16.298 4.5 16.3954 4.5 16.501V17.7001C4.5 17.7883 4.53902 17.8722 4.60622 17.9289C4.66082 17.975 4.72953 17.9999 4.80004 17.9999C4.81622 17.9999 4.83272 17.9984 4.84894 17.996L8.44907 17.3965L8.35031 16.805Z" fill="white"/>
<path d="M13.3543 16.2442L10.3542 14.4455L10.0455 14.9596L12.9001 16.6711V17.3462L9.64919 16.8048L9.55078 17.3963L13.1509 17.9958C13.1674 17.9985 13.1836 18 13.2001 18C13.2706 18 13.3393 17.9751 13.3936 17.929C13.4611 17.872 13.4998 17.7884 13.4998 17.7002V16.5011C13.4998 16.3959 13.4446 16.2985 13.3543 16.2442Z" fill="white"/>
<path d="M9.68078 2.30056C9.58269 2.00707 9.30278 1.81849 8.99736 1.811C8.67906 1.81399 8.40545 2.02117 8.32023 2.31406L8.11621 2.91361L8.68444 3.10669L8.89234 2.49452C8.90704 2.44477 8.95145 2.41088 9.00095 2.41056C9.05136 2.41056 9.09576 2.44262 9.11167 2.4897L9.31569 3.10427L9.88512 2.91569L9.68078 2.30056Z" fill="white"/>
</svg>
