<svg width="18" height="18" viewBox="0 0 18 18" fill="none" xmlns="http://www.w3.org/2000/svg">
<path d="M10.5002 14.625H7.50018C7.3346 14.625 7.2002 14.7926 7.2002 15V17.625C7.2002 17.8323 7.3346 18 7.50018 18H10.5002C10.6661 18 10.8002 17.8323 10.8002 17.625V15C10.8002 14.7926 10.6661 14.625 10.5002 14.625ZM10.2001 17.25H7.80014V15.375H10.2001V17.25Z" fill="white"/>
<path d="M12.0002 3.35276e-08H6.00021C5.83463 3.35276e-08 5.70023 0.168003 5.70023 0.374985V17.625C5.70023 17.8323 5.83463 18 6.00021 18H12.0002C12.1661 18 12.3002 17.8323 12.3002 17.625V0.374985C12.3002 0.168003 12.1661 3.35276e-08 12.0002 3.35276e-08ZM11.7002 17.25H6.3002V0.750015H11.7002V17.25Z" fill="white"/>
<path d="M5.9998 1.49998H3.59979C3.43421 1.49998 3.2998 1.66799 3.2998 1.87497V17.625C3.2998 17.8323 3.43421 18 3.59979 18H5.9998C6.16539 18 6.29979 17.8323 6.29979 17.625V1.87497C6.29979 1.66799 6.16539 1.49998 5.9998 1.49998ZM5.69978 17.25H3.89978V2.25H5.69978V17.25Z" fill="white"/>
<path d="M3.6002 1.49998H2.7002V2.25H3.6002V1.49998Z" fill="white"/>
<path d="M12.8998 0H5.09976V0.750014H12.8998V0Z" fill="white"/>
<path d="M7.69962 10.875H7.09961V12H7.69962V10.875Z" fill="white"/>
<path d="M10.8998 10.875H10.2998V12H10.8998V10.875Z" fill="white"/>
<path d="M7.69962 7.12498H7.09961V8.24998H7.69962V7.12498Z" fill="white"/>
<path d="M10.8998 7.12498H10.2998V8.24998H10.8998V7.12498Z" fill="white"/>
<path d="M7.69962 3.375H7.09961V4.5H7.69962V3.375Z" fill="white"/>
<path d="M10.8998 3.375H10.2998V4.5H10.8998V3.375Z" fill="white"/>
<path d="M5.10001 10.875H4.5V12H5.10001V10.875Z" fill="white"/>
<path d="M5.10001 7.12498H4.5V8.24998H5.10001V7.12498Z" fill="white"/>
<path d="M5.10001 3.375H4.5V4.5H5.10001V3.375Z" fill="white"/>
<path d="M14.4002 1.49998H12.0002C11.8343 1.49998 11.7002 1.66799 11.7002 1.87497V17.625C11.7002 17.8323 11.8343 18 12.0002 18H14.4002C14.5661 18 14.7002 17.8323 14.7002 17.625V1.87497C14.7002 1.66799 14.5661 1.49998 14.4002 1.49998ZM14.1002 17.25H12.3002V2.25H14.1002V17.25Z" fill="white"/>
<path d="M15.3004 1.49998H14.4004V2.25H15.3004V1.49998Z" fill="white"/>
<path d="M13.5004 10.875H12.9004V12H13.5004V10.875Z" fill="white"/>
<path d="M13.5004 7.12498H12.9004V8.24998H13.5004V7.12498Z" fill="white"/>
<path d="M13.5004 3.375H12.9004V4.5H13.5004V3.375Z" fill="white"/>
<path d="M3.6 17.25H0V18H3.6V17.25Z" fill="white"/>
<path d="M18.0004 17.25H14.4004V18H18.0004V17.25Z" fill="white"/>
</svg>
