<svg width="20" height="20" viewBox="0 0 20 20" fill="none" xmlns="http://www.w3.org/2000/svg">
<path d="M14.7928 1.40351C14.6324 0.60386 13.9362 0 13.1034 0C12.9131 0 12.7586 0.156842 12.7586 0.350877C12.7586 0.544912 12.9131 0.701754 13.1034 0.701754C13.6738 0.701754 14.1379 1.17404 14.1379 1.75439C14.1379 2.33474 13.6738 2.80702 13.1034 2.80702C12.9131 2.80702 12.7586 2.96386 12.7586 3.15789C12.7586 3.35193 12.9131 3.50877 13.1034 3.50877C13.9359 3.50877 14.6324 2.90491 14.7928 2.10526H19.3103V4.5614H15.1724H14.4828H10.3448H9.65517H5.51724H4.82759H0.689655V2.10526H5.51724H6.55172C6.74207 2.10526 6.89655 1.94842 6.89655 1.75439C6.89655 1.56035 6.74207 1.40351 6.55172 1.40351H5.92552C6.06828 0.995789 6.44759 0.701754 6.89655 0.701754C7.4669 0.701754 7.93103 1.17404 7.93103 1.75439C7.93103 2.33474 7.4669 2.80702 6.89655 2.80702C6.70621 2.80702 6.55172 2.96386 6.55172 3.15789C6.55172 3.35193 6.70621 3.50877 6.89655 3.50877C7.84724 3.50877 8.62069 2.72175 8.62069 1.75439C8.62069 0.787018 7.84724 0 6.89655 0C6.06414 0 5.36759 0.60386 5.20724 1.40351H0V4.5614V5.61404V9.47368V10.1754V14.386V15.0877V20H4.82759H5.51724H9.65517H10.3448H14.4828H15.1724H20V15.0877V14.386V10.1754V9.47368V5.61404V4.5614V1.40351H14.7928ZM10.3448 5.26316H14.4828V9.47368H10.3448V5.26316ZM14.4828 14.386H10.3448V10.1754H14.4828V14.386ZM5.51724 10.1754H9.65517V14.386H5.51724V10.1754ZM5.51724 5.26316H9.65517V9.47368H5.51724V5.26316ZM0.689655 5.61404V5.26316H4.82759V9.47368H0.689655V5.61404ZM0.689655 10.1754H4.82759V14.386H0.689655V10.1754ZM0.689655 19.2982V15.0877H4.82759V19.2982H0.689655ZM5.51724 19.2982V15.0877H9.65517V19.2982H5.51724ZM10.3448 19.2982V15.0877H14.4828V19.2982H10.3448ZM19.3103 19.2982H15.1724V15.0877H19.3103V19.2982ZM19.3103 14.386H15.1724V10.1754H19.3103V14.386ZM15.1724 9.47368V5.26316H19.3103V5.61404V9.47368H15.1724Z" fill="white"/>
<path d="M8.96552 0.701754C9.53586 0.701754 10 1.17404 10 1.75439C10 2.33474 9.53586 2.80702 8.96552 2.80702C8.77517 2.80702 8.62069 2.96386 8.62069 3.15789C8.62069 3.35193 8.77517 3.50877 8.96552 3.50877C9.91621 3.50877 10.6897 2.72175 10.6897 1.75439C10.6897 0.787018 9.91621 0 8.96552 0C8.77517 0 8.62069 0.156842 8.62069 0.350877C8.62069 0.544912 8.77517 0.701754 8.96552 0.701754Z" fill="white"/>
<path d="M11.0345 0.701754C11.6048 0.701754 12.069 1.17404 12.069 1.75439C12.069 2.33474 11.6048 2.80702 11.0345 2.80702C10.8441 2.80702 10.6897 2.96386 10.6897 3.15789C10.6897 3.35193 10.8441 3.50877 11.0345 3.50877C11.9852 3.50877 12.7586 2.72175 12.7586 1.75439C12.7586 0.787018 11.9852 0 11.0345 0C10.8441 0 10.6897 0.156842 10.6897 0.350877C10.6897 0.544912 10.8441 0.701754 11.0345 0.701754Z" fill="white"/>
<path d="M10.7907 13.9323C10.8579 14.0007 10.9462 14.0351 11.0345 14.0351C11.1228 14.0351 11.211 14.0007 11.2783 13.9323L12.4138 12.7768L13.5493 13.9323C13.6166 14.0007 13.7048 14.0351 13.7931 14.0351C13.8814 14.0351 13.9697 14.0007 14.0369 13.9323C14.1717 13.7951 14.1717 13.5733 14.0369 13.4361L12.9014 12.2807L14.0369 11.1253C14.1717 10.9881 14.1717 10.7663 14.0369 10.6291C13.9021 10.4919 13.6841 10.4919 13.5493 10.6291L12.4138 11.7846L11.2783 10.6291C11.1435 10.4919 10.9255 10.4919 10.7907 10.6291C10.6559 10.7663 10.6559 10.9881 10.7907 11.1253L11.9262 12.2807L10.7907 13.4361C10.6559 13.5733 10.6559 13.7951 10.7907 13.9323Z" fill="white"/>
</svg>
