<svg width="24" height="22" viewBox="0 0 24 22" fill="none" xmlns="http://www.w3.org/2000/svg">
<path d="M13.9091 15.8873C13.9091 16.1932 13.665 16.4414 13.3636 16.4414H10.6364C10.3353 16.4414 10.0909 16.1932 10.0909 15.8873V13.9407L0 11.6118V20.8919C0 21.5039 0.488471 22.0001 1.0909 22.0001H22.9091C23.5116 22.0001 24 21.5039 24 20.8919V11.6212L13.9091 13.9421V15.8873Z" fill="white"/>
<path d="M22.9091 5.37646H1.0909C0.488471 5.37646 0 5.87265 0 6.48469V10.1914L10.0909 12.5201V11.4543C10.0909 11.1484 10.3353 10.9002 10.6364 10.9002H13.3636C13.665 10.9002 13.9091 11.1484 13.9091 11.4543V12.5215L24 10.2006V6.48469C24 5.87265 23.5115 5.37646 22.9091 5.37646Z" fill="white"/>
<path d="M7.79057 2.80437C7.79057 1.97654 8.45355 1.30299 9.26822 1.30299H14.7312C15.5461 1.30299 16.2091 1.9765 16.2091 2.80437V4.26807H17.4917V2.80437C17.4917 1.25785 16.2535 3.10021e-08 14.7312 3.10021e-08H9.26818C7.7461 3.10021e-08 6.50763 1.25785 6.50763 2.80437V4.26807H7.79053L7.79057 2.80437Z" fill="white"/>
</svg>
