<svg width="24" height="22" viewBox="0 0 24 22" fill="none" xmlns="http://www.w3.org/2000/svg">
<path d="M23.4359 16.4341L19.2543 14.2756C17.8604 13.5486 17.8131 14.0257 16.3484 15.5253C15.994 15.8888 15.3325 16.8431 14.5528 16.6613C12.9227 16.275 9.87505 13.9803 8.88279 12.9351C8.41029 12.4352 6.37852 10.0496 6.3549 9.27707C6.30765 8.09559 9.00092 7.50485 8.12678 5.25551L6.2604 1.23394C4.51213 -2.62858 -0.378285 3.55145 0.0233436 6.43698C1.06285 13.5486 14.0331 25.0452 21.2624 21.2509C22.8689 20.3875 25.0424 17.3656 23.4359 16.4341Z" fill="white"/>
<path d="M13.5942 2.12356C14.0379 1.99381 14.4638 1.91309 14.9232 1.91309C16.1116 1.91309 16.8383 2.48755 16.8383 3.46711C16.8383 4.00914 16.5286 4.42215 15.8681 4.84309L14.539 5.70876C14.1288 5.97617 13.9449 6.39711 13.9449 6.85048H16.6618C16.7207 6.85048 16.7542 6.88292 16.7542 6.93914V7.56262C16.7542 7.61884 16.7207 7.65128 16.6618 7.65128H13.0916C13.0335 7.65128 13 7.61884 13 7.56262V7.17412C13 6.18664 13.3343 5.4745 14.0863 4.99662L15.408 4.14681C15.7423 3.92769 15.8919 3.71722 15.8919 3.46711C15.8919 3.01373 15.5241 2.72253 14.9218 2.72253C14.5457 2.72253 14.1861 2.7874 13.8689 2.89192L13.3835 3.04617C13.3343 3.06202 13.2919 3.03752 13.2747 2.98922L13.0663 2.38232C13.041 2.33403 13.0663 2.29294 13.1243 2.27708L13.5942 2.12356Z" fill="white"/>
<path d="M22 6.11418C22 6.17112 21.9665 6.20355 21.9084 6.20355H21.3902V7.56368C21.3902 7.6199 21.3567 7.65234 21.2978 7.65234H20.5458C20.487 7.65234 20.4535 7.6199 20.4535 7.56368V6.20355H17.6516C17.5936 6.20355 17.5601 6.17112 17.5601 6.11418V5.43447C17.5601 5.38618 17.569 5.35375 17.6025 5.32131C17.811 5.08705 17.9949 4.86793 18.1959 4.60124L19.7432 2.67458C19.9018 2.47203 20.0268 2.27742 20.1691 2.05109C20.2026 2.01073 20.2361 1.99487 20.286 1.99487H21.2971C21.3559 1.99487 21.3894 2.02731 21.3894 2.08353V5.40204H21.9077C21.9657 5.40204 21.9992 5.43447 21.9992 5.49142V6.11418H22ZM20.4535 4.00155C20.4535 3.74278 20.4699 3.4833 20.5034 3.20796C20.5198 3.11065 20.4453 3.08615 20.3783 3.17552L19.0232 4.84271C18.9144 4.98831 18.7559 5.17427 18.639 5.2795C18.5801 5.34438 18.6136 5.4006 18.6806 5.4006H20.4535V4.00155V4.00155Z" fill="white"/>
</svg>
