<svg width="24" height="22" viewBox="0 0 24 22" fill="none" xmlns="http://www.w3.org/2000/svg">
<path d="M21.8669 -2.61263e-08H16.8897C15.7165 -2.61263e-08 14.0779 0.756655 13.2483 1.68154L4.88836 11.0015C4.0588 11.9263 4.0588 13.4397 4.88836 14.3646L11.1152 21.3063C11.9447 22.2312 13.3022 22.2312 14.1318 21.3063L22.4916 11.9865C23.3212 11.0617 24 9.23482 24 7.92688V2.37807C24 1.07013 23.0401 -2.61263e-08 21.8669 -2.61263e-08ZM19.0228 7.92688C17.8447 7.92688 16.8897 6.86221 16.8897 5.5488C16.8897 4.23544 17.8447 3.17073 19.0228 3.17073C20.2008 3.17073 21.1559 4.23544 21.1559 5.5488C21.1559 6.86221 20.2008 7.92688 19.0228 7.92688ZM1.74968 13.2435L9.35724 21.7247C8.55144 22.1993 7.52495 22.0601 6.84893 21.3063L0.622171 14.3646C-0.20739 13.4397 -0.20739 11.9263 0.622171 11.0015L8.98207 1.68154C9.81167 0.756655 11.4503 -2.61263e-08 12.6235 -2.61263e-08L1.74968 12.1225C1.47319 12.4308 1.47319 12.9352 1.74968 13.2435Z" fill="white"/>
</svg>
