<svg width="19" height="26" viewBox="0 0 19 26" fill="none" xmlns="http://www.w3.org/2000/svg">
<path d="M9.83552 0.00541909C4.43501 -0.172522 -1.01129e-07 4.05468 -1.01129e-07 9.29455C-1.01129e-07 15.2412 5.83695 19.5569 9.10855 25.7634C9.27466 26.0786 9.73864 26.079 9.90532 25.7639C12.865 20.1793 17.9234 16.4345 18.8608 11.0543C19.8314 5.48692 15.6087 0.195712 9.83552 0.00541909ZM9.50647 14.1631C6.75638 14.1631 4.52691 11.9833 4.52691 9.29455C4.52691 6.60584 6.75643 4.42605 9.50647 4.42605C12.2566 4.42605 14.4861 6.60584 14.4861 9.29455C14.4861 11.9833 12.2566 14.1631 9.50647 14.1631Z" fill="#172957"/>
</svg>
