<svg width="142" height="14" viewBox="0 0 142 14" fill="none" xmlns="http://www.w3.org/2000/svg">
<path d="M0.288 11.848H10.656L10.32 12.928L0.288 11.848ZM12.48 2.608C12.384 2.864 12.28 3.224 12.168 3.688L2.136 2.608H12.48ZM11.88 5.8V5.992L1.704 4.912H11.928C11.896 5.296 11.88 5.592 11.88 5.8ZM11.088 10.576L1.08 9.52H11.424L11.088 10.576ZM14.136 0.303999C13.704 0.624 13.376 0.96 13.152 1.312L3.792 0.303999H14.136ZM12.096 7.216C12.24 7.632 12.472 7.992 12.792 8.296L2.64 7.216H12.096ZM21.672 4.072C20.584 3.816 19.656 3.688 18.888 3.688C18.12 3.688 17.552 3.712 17.184 3.76L17.064 4.456L18.264 4.6C20.84 4.936 22.128 6 22.128 7.792C22.128 8 22.08 8.392 21.984 8.968C21.888 9.528 21.728 10.072 21.504 10.6C21.28 11.128 20.992 11.56 20.64 11.896C20.304 12.216 19.968 12.48 19.632 12.688C19.312 12.88 18.896 13.016 18.384 13.096C17.584 13.224 16.512 13.288 15.168 13.288C13.84 13.288 12.496 13.104 11.136 12.736L12.312 9.184C13.56 9.536 14.648 9.712 15.576 9.712C16.52 9.712 17.184 9.688 17.568 9.64L17.688 8.872L16.176 8.704C14.88 8.56 13.96 8.256 13.416 7.792C12.872 7.328 12.6 6.664 12.6 5.8C12.6 5.48 12.64 5.08 12.72 4.6C13.04 2.888 13.616 1.704 14.448 1.048C15.28 0.391999 16.544 0.0639992 18.24 0.0639992C19.952 0.0639992 21.48 0.231999 22.824 0.568L21.672 4.072ZM35.0106 10.024H32.6826L32.1546 13H28.1226L30.3306 0.303999H36.4266C38.7466 0.303999 39.9066 1.4 39.9066 3.592C39.9066 4.584 39.7626 5.496 39.4746 6.328C39.1866 7.16 38.8746 7.816 38.5386 8.296C38.2026 8.776 37.7226 9.184 37.0986 9.52C36.4906 9.856 35.7946 10.024 35.0106 10.024ZM35.5386 4.456C35.5386 4.44 35.5466 4.392 35.5626 4.312C35.5626 3.976 35.2186 3.808 34.5306 3.808H33.7626L33.2586 6.784H34.0026C34.3706 6.784 34.6586 6.744 34.8666 6.664C35.0746 6.568 35.2026 6.376 35.2506 6.088L35.5386 4.456ZM27.3306 12.928L17.1546 11.848H27.5226L27.3306 12.928ZM28.1466 8.296L17.9706 7.216H28.3386L28.1466 8.296ZM28.5546 5.992L18.3786 4.912H28.7466L28.5546 5.992ZM28.9626 3.688L18.7866 2.608H29.1546L28.9626 3.688ZM29.3706 1.384L19.1946 0.303999H29.5386L29.3706 1.384ZM27.7386 10.6L17.5626 9.52H27.9306L27.7386 10.6ZM53.3301 7.84H49.7541L49.4661 9.472H53.9061L53.2821 13H44.8101L47.0181 0.303999H55.4661L54.3381 3.904H50.4261L50.1381 5.536H53.7381L53.3301 7.84ZM44.0181 12.928L33.8421 11.848H44.2101L44.0181 12.928ZM44.8341 8.296L34.6581 7.216H45.0261L44.8341 8.296ZM45.2421 5.992L35.0661 4.912H45.4341L45.2421 5.992ZM45.6501 3.688L35.4741 2.608H45.8421L45.6501 3.688ZM46.0581 1.384L35.8821 0.303999H46.2261L46.0581 1.384ZM44.4261 10.6L34.2501 9.52H44.6181L44.4261 10.6ZM69.0801 7.84H65.5041L65.2161 9.472H69.6561L69.0321 13H60.5601L62.7681 0.303999H71.2161L70.0881 3.904H66.1761L65.8881 5.536H69.4881L69.0801 7.84ZM59.7681 12.928L49.5921 11.848H59.9601L59.7681 12.928ZM60.5841 8.296L50.4081 7.216H60.7761L60.5841 8.296ZM60.9921 5.992L50.8161 4.912H61.1841L60.9921 5.992ZM61.4001 3.688L51.2241 2.608H61.5921L61.4001 3.688ZM61.8081 1.384L51.6321 0.303999H61.9761L61.8081 1.384ZM60.1761 10.6L50.0001 9.52H60.3681L60.1761 10.6ZM83.9181 0.303999C85.6621 0.303999 86.9101 0.615999 87.6621 1.24C88.4141 1.864 88.7901 2.864 88.7901 4.24C88.7901 4.896 88.7021 5.704 88.5261 6.664C88.1261 8.936 87.4301 10.56 86.4381 11.536C85.4621 12.512 83.8781 13 81.6861 13H76.3101L78.5181 0.303999H83.9181ZM83.3421 3.808H81.9501L80.9421 9.568H82.3341C82.7981 9.568 83.1501 9.512 83.3901 9.4C83.6461 9.272 83.8061 9.024 83.8701 8.656L84.5661 4.696C84.5821 4.632 84.5901 4.504 84.5901 4.312C84.5901 3.976 84.1741 3.808 83.3421 3.808ZM75.5181 12.928L65.3421 11.848H75.7101L75.5181 12.928ZM76.3341 8.296L66.1581 7.216H76.5261L76.3341 8.296ZM76.7421 5.992L66.5661 4.912H76.9341L76.7421 5.992ZM77.1501 3.688L66.9741 2.608H77.3421L77.1501 3.688ZM77.5581 1.384L67.3821 0.303999H77.7261L77.5581 1.384ZM75.9261 10.6L65.7501 9.52H76.1181L75.9261 10.6ZM107.452 13L107.356 11.056H104.332L103.588 13H99.4361L104.764 0.303999H110.716L111.652 13H107.452ZM107.356 7.624V3.976H107.02L105.604 7.624H107.356ZM98.6681 12.904L88.8281 11.848H99.1241L98.6681 12.904ZM99.6521 10.576L89.8121 9.52H100.108L99.6521 10.576ZM100.636 8.272L90.7961 7.216H101.068L100.636 8.272ZM101.596 5.968L91.7801 4.912H102.052L101.596 5.968ZM102.58 3.664L92.7641 2.608H103.012L102.58 3.664ZM103.54 1.336L93.7481 0.303999H103.972L103.54 1.336ZM117.912 13L120.12 0.303999H124.344L122.112 13H117.912ZM117.12 12.928L106.944 11.848H117.312L117.12 12.928ZM117.936 8.296L107.76 7.216H118.128L117.936 8.296ZM118.344 5.992L108.168 4.912H118.536L118.344 5.992ZM118.752 3.688L108.576 2.608H118.944L118.752 3.688ZM119.16 1.384L108.984 0.303999H119.328L119.16 1.384ZM117.528 10.6L107.352 9.52H117.72L117.528 10.6ZM137.958 0.303999C140.294 0.303999 141.462 1.36 141.462 3.472C141.462 4.432 141.27 5.432 140.886 6.472C140.502 7.496 139.854 8.264 138.942 8.776L140.31 13H135.822L134.91 9.304H134.334L133.686 13H129.654L131.862 0.303999H137.958ZM137.07 4.456C137.07 4.44 137.078 4.36 137.094 4.216C137.094 3.944 136.67 3.808 135.822 3.808H135.294L134.91 6.016H135.678C136.414 6.016 136.83 5.776 136.926 5.296L137.07 4.456ZM128.862 12.928L118.686 11.848H129.054L128.862 12.928ZM129.678 8.296L119.502 7.216H129.87L129.678 8.296ZM130.086 5.992L119.91 4.912H130.278L130.086 5.992ZM130.494 3.688L120.318 2.608H130.686L130.494 3.688ZM130.902 1.384L120.726 0.303999H131.07L130.902 1.384ZM129.27 10.6L119.094 9.52H129.462L129.27 10.6Z" fill="white"/>
</svg>
